<svg xmlns="http://www.w3.org/2000/svg" xmlns:xlink="http://www.w3.org/1999/xlink" width="500" zoomAndPan="magnify" viewBox="0 0 375 374.999991" height="500" preserveAspectRatio="xMidYMid meet" version="1.0"><defs><g/><clipPath id="id1"><path d="M 36.179688 36.179688 L 339.179688 36.179688 L 339.179688 339.179688 L 36.179688 339.179688 Z M 36.179688 36.179688 " clip-rule="nonzero"/></clipPath></defs><rect x="-37.5" width="450" fill="#ffffff" y="-37.499999" height="449.999989" fill-opacity="1"/><rect x="-37.5" width="450" fill="#ffffff" y="-37.499999" height="449.999989" fill-opacity="1"/><rect x="-37.5" width="450" fill="#ffffff" y="-37.499999" height="449.999989" fill-opacity="1"/><rect x="-37.5" width="450" fill="#ffffff" y="-37.499999" height="449.999989" fill-opacity="1"/><g clip-path="url(#id1)"><path fill="#000000" d="M 187.679688 36.179688 C 104.144531 36.179688 36.179688 104.144531 36.179688 187.679688 C 36.179688 271.21875 104.144531 339.179688 187.679688 339.179688 C 271.214844 339.179688 339.179688 271.21875 339.179688 187.679688 C 339.179688 104.144531 271.214844 36.179688 187.679688 36.179688 Z M 187.679688 335.230469 C 106.320312 335.230469 40.128906 269.039062 40.128906 187.683594 C 40.128906 106.320312 106.320312 40.132812 187.679688 40.132812 C 269.039062 40.132812 335.230469 106.324219 335.230469 187.683594 C 335.230469 269.039062 269.035156 335.230469 187.679688 335.230469 Z M 187.679688 335.230469 " fill-opacity="1" fill-rule="nonzero"/></g><path fill="#000000" d="M 187.679688 48.007812 C 110.664062 48.007812 48.007812 110.664062 48.007812 187.679688 C 48.007812 264.695312 110.664062 327.355469 187.679688 327.355469 C 264.695312 327.355469 327.351562 264.695312 327.351562 187.679688 C 327.351562 110.667969 264.695312 48.007812 187.679688 48.007812 Z M 187.679688 48.007812 " fill-opacity="1" fill-rule="nonzero"/><g fill="#ffffff" fill-opacity="1"><g transform="translate(81.822391, 270.191709)"><g><path d="M 15.21875 -143.84375 C 11.726562 -146.53125 6.972656 -148.585938 0.953125 -150.015625 L 1.90625 -158.578125 L 59.671875 -158.578125 L 58.25 -150.015625 C 50.007812 -148.910156 43.191406 -146.769531 37.796875 -143.59375 L 69.1875 -37.796875 L 104.609375 -158.578125 L 112.21875 -158.578125 L 150.265625 -38.28125 L 178.546875 -143.59375 C 172.210938 -146.925781 165.003906 -149.066406 156.921875 -150.015625 L 158.109375 -158.578125 L 210.40625 -158.578125 L 208.984375 -150.015625 C 203.753906 -149.066406 199 -147.085938 194.71875 -144.078125 L 153.59375 0 L 142.171875 0 L 105.5625 -109.84375 L 72.28125 0 L 60.859375 0 Z M 15.21875 -143.84375 "/></g></g></g></svg>